<svg xmlns="http://www.w3.org/2000/svg" version="1.1" xmlns:xlink="http://www.w3.org/1999/xlink" xmlns:svgjs="http://svgjs.dev/svgjs" width="1920" height="1080" preserveAspectRatio="none" viewBox="0 0 1920 1080"><g mask="url(&quot;#SvgjsMask20829&quot;)" fill="none"><circle r="127.19404714276193" cx="1699.45" cy="798.71" stroke="rgba(0, 233, 202, 1)" stroke-width="1" stroke-dasharray="3, 2"></circle><rect width="80" height="80" clip-path="url(&quot;#SvgjsClipPath20830&quot;)" x="741.51" y="-7.94" fill="url(&quot;#SvgjsPattern20831&quot;)" transform="rotate(343, 781.51, 32.06)"></rect><path d="M1568.5900000000001 390.89 L1679.3500000000001 510.04999999999995L1728.4398071349706 346.00019286502953z" fill="rgba(255, 255, 255, 1)"></path><rect width="691.08" height="691.08" clip-path="url(&quot;#SvgjsClipPath20832&quot;)" x="1228.99" y="123.03" fill="url(&quot;#SvgjsPattern20833&quot;)" transform="rotate(253.34, 1574.53, 468.57)"></rect><path d="M245.61 1117.68 L481.54 1155.92L518.0116864798903 982.36331352011z" stroke="rgba(255, 255, 255, 1)" stroke-width="1" stroke-dasharray="4, 4"></path><circle r="123.72229558695686" cx="406.96" cy="656.05" fill="rgba(255, 255, 255, 1)"></circle><path d="M63.87 785.21L55.17 794.6 44.09 788.17 35.39 797.56 24.31 791.13 15.61 800.52 4.53 794.09" stroke="rgba(36, 129, 145, 1)" stroke-width="2.07"></path><path d="M1105.95 370.98L1098.74 381.56 1086.83 376.85 1079.62 387.44 1067.71 382.72 1060.5 393.31 1048.59 388.59M1103.6 363.33L1096.39 373.92 1084.48 369.21 1077.27 379.79 1065.36 375.08 1058.15 385.66 1046.25 380.95M1101.25 355.69L1094.04 366.27 1082.13 361.56 1074.92 372.14 1063.02 367.43 1055.8 378.01 1043.9 373.3" stroke="rgba(36, 129, 145, 1)" stroke-width="1.65" stroke-dasharray="3, 2"></path></g><defs><mask id="SvgjsMask20829"><rect width="1920" height="1080" fill="#ffffff"></rect></mask><pattern x="0" y="0" width="8" height="8" patternUnits="userSpaceOnUse" id="SvgjsPattern20831"><path d="M0 8L4 0L8 8" stroke="rgba(255, 255, 255, 1)" fill="none"></path></pattern><clipPath id="SvgjsClipPath20830"><circle r="20" cx="781.51" cy="32.06"></circle></clipPath><pattern x="0" y="0" width="8.86" height="8.86" patternUnits="userSpaceOnUse" id="SvgjsPattern20833"><path d="M4.43 1L4.43 7.859999999999999M1 4.43L7.859999999999999 4.43" stroke="rgba(0, 233, 202, 1)" fill="none" stroke-width="1"></path></pattern><clipPath id="SvgjsClipPath20832"><circle r="172.77" cx="1574.53" cy="468.57"></circle></clipPath></defs></svg>