<svg xmlns="http://www.w3.org/2000/svg" version="1.1" xmlns:xlink="http://www.w3.org/1999/xlink" xmlns:svgjs="http://svgjs.dev/svgjs" width="1920" height="1080" preserveAspectRatio="none" viewBox="0 0 1920 1080"><g mask="url(&quot;#SvgjsMask21061&quot;)" fill="none"><path d="M656.89 507.54999999999995 L600.05 274.27L779.4597016949787 239.92029830502133z" stroke="rgba(0, 233, 202, 1)" stroke-width="1.75" stroke-dasharray="3, 2"></path><circle r="164.85912842527227" cx="1557.75" cy="340.05" stroke="rgba(36, 129, 145, 1)" stroke-width="2.17" stroke-dasharray="3, 3"></circle><path d="M167.95 851.51a5.6 5.6 0 1 0-7.72 8.12 5.6 5.6 0 1 0 7.72-8.12zM156.93 863.11a5.6 5.6 0 1 0-7.72 8.12 5.6 5.6 0 1 0 7.72-8.12zM145.9 874.71a5.6 5.6 0 1 0-7.71 8.11 5.6 5.6 0 1 0 7.71-8.11zM134.88 886.3a5.6 5.6 0 1 0-7.71 8.12 5.6 5.6 0 1 0 7.71-8.12zM178.39 817.29a5.6 5.6 0 1 0-7.71 8.12 5.6 5.6 0 1 0 7.71-8.12zM167.37 828.89a5.6 5.6 0 1 0-7.71 8.12 5.6 5.6 0 1 0 7.71-8.12zM156.35 840.49a5.6 5.6 0 1 0-7.72 8.12 5.6 5.6 0 1 0 7.72-8.12zM145.33 852.08a5.6 5.6 0 1 0-7.72 8.12 5.6 5.6 0 1 0 7.72-8.12zM188.84 783.07a5.6 5.6 0 1 0-7.72 8.12 5.6 5.6 0 1 0 7.72-8.12zM177.82 794.67a5.6 5.6 0 1 0-7.72 8.12 5.6 5.6 0 1 0 7.72-8.12zM166.79 806.27a5.6 5.6 0 1 0-7.71 8.12 5.6 5.6 0 1 0 7.71-8.12zM155.77 817.87a5.6 5.6 0 1 0-7.71 8.12 5.6 5.6 0 1 0 7.71-8.12z" fill="rgba(0, 233, 202, 1)"></path><path d="M712.69 1265.41 L661.4 1181.51L732.5488251416083 1177.9561748583917z" stroke="rgba(0, 233, 202, 1)" stroke-width="1"></path><circle r="90" cx="1312.23" cy="517.27" stroke="rgba(255, 255, 255, 1)" stroke-width="1.04" stroke-dasharray="2, 2"></circle><rect width="168" height="168" clip-path="url(&quot;#SvgjsClipPath21062&quot;)" x="30.37" y="439.49" fill="url(&quot;#SvgjsPattern21063&quot;)" transform="rotate(38.61, 114.37, 523.49)"></rect><path d="M604.49 589.86 L340.95 523.54L635.3599034552205 394.0600965447795z" stroke="rgba(36, 129, 145, 1)" stroke-width="1.64" stroke-dasharray="2, 2"></path><circle r="90" cx="1032.57" cy="892.38" stroke="rgba(0, 233, 202, 1)" stroke-width="2.92"></circle></g><defs><mask id="SvgjsMask21061"><rect width="1920" height="1080" fill="#ffffff"></rect></mask><pattern x="0" y="0" width="6" height="6" patternUnits="userSpaceOnUse" id="SvgjsPattern21063"><path d="M3 1L3 5M1 3L5 3" stroke="rgba(36, 129, 145, 1)" fill="none" stroke-width="1.01"></path></pattern><clipPath id="SvgjsClipPath21062"><circle r="42" cx="114.37" cy="523.49"></circle></clipPath></defs></svg>