<svg xmlns="http://www.w3.org/2000/svg" version="1.1" xmlns:xlink="http://www.w3.org/1999/xlink" xmlns:svgjs="http://svgjs.dev/svgjs" width="1920" height="1080" preserveAspectRatio="none" viewBox="0 0 1920 1080"><g mask="url(&quot;#SvgjsMask20834&quot;)" fill="none"><path d="M1564.08 716.91a5.6 5.6 0 1 0-0.75 11.17 5.6 5.6 0 1 0 0.75-11.17zM1563.02 732.87a5.6 5.6 0 1 0-0.75 11.18 5.6 5.6 0 1 0 0.75-11.18zM1561.95 748.84a5.6 5.6 0 1 0-0.74 11.17 5.6 5.6 0 1 0 0.74-11.17zM1560.89 764.8a5.6 5.6 0 1 0-0.74 11.18 5.6 5.6 0 1 0 0.74-11.18z" fill="rgba(255, 255, 255, 1)"></path><rect width="108" height="108" clip-path="url(&quot;#SvgjsClipPath20835&quot;)" x="1659.56" y="307.53" fill="url(&quot;#SvgjsPattern20836&quot;)" transform="rotate(110.48, 1713.56, 361.53)"></rect><path d="M1348.6 223.06L1349.2 235.85 1336.85 239.24 1337.44 252.03 1325.09 255.42 1325.68 268.21 1313.33 271.6M1342.13 218.36L1342.72 231.15 1330.37 234.54 1330.97 247.33 1318.62 250.72 1319.21 263.51 1306.86 266.9" stroke="rgba(0, 233, 202, 1)" stroke-width="1"></path><circle r="90" cx="1718.57" cy="521.49" fill="rgba(255, 255, 255, 1)"></circle><path d="M1817.4 824.26L1815.27 836.89 1802.48 837.58 1800.35 850.21 1787.56 850.9 1785.43 863.53 1772.65 864.23M1812.07 818.29L1809.94 830.92 1797.15 831.61 1795.02 844.24 1782.23 844.94 1780.1 857.57 1767.32 858.26M1806.74 812.33L1804.61 824.95 1791.82 825.65 1789.69 838.28 1776.9 838.97 1774.78 851.6 1761.99 852.29" stroke="rgba(0, 233, 202, 1)" stroke-width="1.77" stroke-dasharray="2, 2"></path><rect width="612" height="612" clip-path="url(&quot;#SvgjsClipPath20837&quot;)" x="305.28" y="-17.38" fill="url(&quot;#SvgjsPattern20838&quot;)" transform="rotate(150.69, 611.28, 288.62)"></rect><rect width="204" height="204" clip-path="url(&quot;#SvgjsClipPath20839&quot;)" x="1457.66" y="45.57" fill="url(&quot;#SvgjsPattern20840&quot;)" transform="rotate(311.43, 1559.66, 147.57)"></rect><rect width="60" height="60" clip-path="url(&quot;#SvgjsClipPath20841&quot;)" x="1541.83" y="498.91" fill="url(&quot;#SvgjsPattern20842&quot;)" transform="rotate(215.57, 1571.83, 528.91)"></rect></g><defs><mask id="SvgjsMask20834"><rect width="1920" height="1080" fill="#ffffff"></rect></mask><pattern x="0" y="0" width="6" height="6" patternUnits="userSpaceOnUse" id="SvgjsPattern20836"><path d="M0 6L3 0L6 6" stroke="rgba(255, 255, 255, 1)" fill="none"></path></pattern><clipPath id="SvgjsClipPath20835"><circle r="27" cx="1713.56" cy="361.53"></circle></clipPath><pattern x="0" y="0" width="6" height="6" patternUnits="userSpaceOnUse" id="SvgjsPattern20838"><path d="M0 6L3 0L6 6" stroke="rgba(255, 255, 255, 1)" fill="none"></path></pattern><clipPath id="SvgjsClipPath20837"><circle r="153" cx="611.28" cy="288.62"></circle></clipPath><pattern x="0" y="0" width="6" height="6" patternUnits="userSpaceOnUse" id="SvgjsPattern20840"><path d="M0 6L3 0L6 6" stroke="rgba(0, 233, 202, 1)" fill="none"></path></pattern><clipPath id="SvgjsClipPath20839"><circle r="51" cx="1559.66" cy="147.57"></circle></clipPath><pattern x="0" y="0" width="6" height="6" patternUnits="userSpaceOnUse" id="SvgjsPattern20842"><path d="M3 1L3 5M1 3L5 3" stroke="rgba(36, 129, 145, 1)" fill="none" stroke-width="1.11"></path></pattern><clipPath id="SvgjsClipPath20841"><circle r="15" cx="1571.83" cy="528.91"></circle></clipPath></defs></svg>