<svg xmlns="http://www.w3.org/2000/svg" version="1.1" xmlns:xlink="http://www.w3.org/1999/xlink" xmlns:svgjs="http://svgjs.dev/svgjs" width="1440" height="560" preserveAspectRatio="none" viewBox="0 0 1440 560"><g mask="url(&quot;#SvgjsMask1013&quot;)" fill="none"><path d="M298.72 551.56L319.65 551.56L319.65 572.49L298.72 572.49z" stroke="rgba(7, 134, 135, 1)"></path><path d="M1305.49 82.15L1311.8 82.15L1311.8 88.46L1305.49 88.46z" stroke="#d3b714"></path><path d="M640.43 104.74a35.97 35.97 0 1 0 63.75 33.34z" fill="#d3b714"></path><path d="M915.99 451.88a2.03 2.03 0 1 0 4.04-0.46z" fill="rgba(7, 134, 135, 1)"></path><path d="M154.38 256.37 a35.15 35.15 0 1 0 70.3 0 a35.15 35.15 0 1 0 -70.3 0z" stroke="#d3b714"></path><path d="M236.14 86.3a43.1 43.1 0 1 0 85.64-9.8z" stroke="#d3b714"></path><path d="M376.12 219.88a0.65 0.65 0 1 0 0.1-1.29z" fill="rgba(95, 238, 255, 1)"></path><path d="M1285.46 234.01a11.98 11.98 0 1 0-1.56 23.91z" fill="#d3b714"></path><path d="M510.11 541.75L553.63 541.75L553.63 546.28L510.11 546.28z" fill="rgba(7, 134, 135, 1)"></path><path d="M1097.56 220.41a39.22 39.22 0 1 0 67.32 40.25z" fill="rgba(95, 238, 255, 1)"></path><path d="M73.43 465.36 a33.81 33.81 0 1 0 67.62 0 a33.81 33.81 0 1 0 -67.62 0z" fill="rgba(7, 134, 135, 1)"></path><path d="M1387.97 106.18L1406.46 106.18L1406.46 147.24L1387.97 147.24z" stroke="#d3b714"></path><path d="M803.82 277.22a6.29 6.29 0 1 0 1.07-12.54z" stroke="rgba(7, 134, 135, 1)"></path><path d="M1330.14 254.11a48.06 48.06 0 1 0-96.08-2.99z" fill="#d3b714"></path><path d="M126.09 534.79L149.88 534.79L149.88 570.3L126.09 570.3z" stroke="rgba(7, 134, 135, 1)"></path><path d="M406.89 293.17L409.24 293.17L409.24 295.49L406.89 295.49z" stroke="rgba(7, 134, 135, 1)"></path><path d="M629.05 314.57L645.11 314.57L645.11 330.63L629.05 330.63z" stroke="rgba(7, 134, 135, 1)"></path><path d="M646.68 77.55 a6.99 6.99 0 1 0 13.98 0 a6.99 6.99 0 1 0 -13.98 0z" fill="#d3b714"></path><path d="M1006.87 167.5L1024.85 167.5L1024.85 185.48L1006.87 185.48z" fill="rgba(95, 238, 255, 1)"></path><path d="M569.74 360.7a33.84 33.84 0 1 0 41.73 53.29z" stroke="rgba(7, 134, 135, 1)"></path><path d="M1156.07 391.48L1174.49 391.48L1174.49 408.78L1156.07 408.78z" stroke="rgba(95, 238, 255, 1)"></path><path d="M-9.61 224.68 a50.74 50.74 0 1 0 101.48 0 a50.74 50.74 0 1 0 -101.48 0z" stroke="#d3b714"></path><path d="M364.34 51.94L372.24 51.94L372.24 71.09L364.34 71.09z" fill="rgba(95, 238, 255, 1)"></path><path d="M618.58 1.43L639.48 1.43L639.48 30.97L618.58 30.97z" fill="rgba(95, 238, 255, 1)"></path><path d="M391.28 430.59L391.31 430.59L391.31 430.62L391.28 430.62z" stroke="rgba(95, 238, 255, 1)"></path><path d="M1383.69 186.03a8.7 8.7 0 1 0-11.57-12.99z" stroke="#d3b714"></path><path d="M385.31 248.07a16.83 16.83 0 1 0-4.07 33.41z" stroke="rgba(95, 238, 255, 1)"></path><path d="M1385.24 300.08a35.56 35.56 0 1 0-34.23-62.34z" fill="#d3b714"></path><path d="M1367.93 252.65L1381.85 252.65L1381.85 266.57L1367.93 266.57z" stroke="#d3b714"></path><path d="M475.52 237.41L476.01 237.41L476.01 279.33L475.52 279.33z" stroke="rgba(95, 238, 255, 1)"></path><path d="M1281.18 44.21 a34.46 34.46 0 1 0 68.92 0 a34.46 34.46 0 1 0 -68.92 0z" fill="rgba(7, 134, 135, 1)"></path><path d="M11.75 263.01L20.6 263.01L20.6 302.88L11.75 302.88z" fill="rgba(95, 238, 255, 1)"></path><path d="M823.42 487.69L853.97 487.69L853.97 516.26L823.42 516.26z" stroke="rgba(7, 134, 135, 1)"></path></g><defs><mask id="SvgjsMask1013"><rect width="1440" height="560" fill="#ffffff"></rect></mask></defs></svg>